<svg xmlns="http://www.w3.org/2000/svg" width="25" height="25" viewBox="0 0 25 25">
    <g data-name="组 261">
        <path data-name="路径 431" d="M0 0h25v25H0z" style="fill:none"/>
        <path data-name="路径 432" d="M19.85 8.278H5.15A3.154 3.154 0 0 0 2 11.444v4.222a2.112 2.112 0 0 0 2.1 2.111h2.1v2.111A2.112 2.112 0 0 0 8.3 22h8.4a2.112 2.112 0 0 0 2.1-2.111v-2.111h2.1a2.112 2.112 0 0 0 2.1-2.111v-4.223a3.154 3.154 0 0 0-3.15-3.166zm-4.2 11.611h-6.3a1.056 1.056 0 0 1-1.05-1.056v-4.222h8.4v4.222a1.056 1.056 0 0 1-1.05 1.056zm4.2-7.389a1.056 1.056 0 1 1 1.05-1.056 1.056 1.056 0 0 1-1.05 1.056zM17.75 3H7.25A1.056 1.056 0 0 0 6.2 4.056v2.111a1.056 1.056 0 0 0 1.05 1.055h10.5a1.056 1.056 0 0 0 1.05-1.055V4.056A1.056 1.056 0 0 0 17.75 3z" style="fill:#0d1922"/>
    </g>
</svg>
