<svg data-name="组 1938" xmlns="http://www.w3.org/2000/svg" width="17" height="25" viewBox="0 0 17 25">
    <path data-name="路径 2485" d="M12 7.75a.75.75 0 0 1-.75-.75V2a.75.75 0 1 1 1.5 0v5a.75.75 0 0 1-.75.75z" transform="translate(-3.502 -1.25)" style="fill:#232323"/>
    <path data-name="路径 2486" d="M12 11.25A2.25 2.25 0 1 1 14.25 9 2.25 2.25 0 0 1 12 11.25zm0-3a.75.75 0 1 0 .75.75.75.75 0 0 0-.75-.75z" transform="translate(-3.502 -.118)" style="fill:#232323"/>
    <path data-name="路径 2487" d="M18.23 26.25H7.265a3.144 3.144 0 0 1-3.015-3.255v-11.8a3.356 3.356 0 0 1 1.261-2.65l5.482-4.227a2.809 2.809 0 0 1 3.509 0l5.482 4.226a3.356 3.356 0 0 1 1.265 2.652.89.89 0 0 1-.822.923.763.763 0 0 1-.578-.239.892.892 0 0 1-.244-.614 1.554 1.554 0 0 0-.577-1.278L13.546 5.76a1.265 1.265 0 0 0-1.583 0L6.48 9.988A1.511 1.511 0 0 0 5.9 11.2V23a1.431 1.431 0 0 0 1.362 1.48H18.23A1.431 1.431 0 0 0 19.601 23v-6.03a.825.825 0 1 1 1.645 0v6.025a3.145 3.145 0 0 1-3.016 3.255z" transform="translate(-4.25 -1.25)" style="fill:#232323"/>
    <path data-name="路径 2488" d="M19 13.75a.75.75 0 0 1-.75-.75v-1a.75.75 0 0 1 1.5 0v1a.75.75 0 0 1-.75.75z" transform="translate(-2.754 .592)" style="fill:#232323"/>
    <path data-name="路径 2489" d="M12 18.75a.75.75 0 0 1-.75-.75v-4a.75.75 0 0 1 1.5 0v4a.75.75 0 0 1-.75.75zm3-1a.75.75 0 0 1-.75-.75v-2a.75.75 0 0 1 1.5 0v2a.75.75 0 0 1-.75.75zm-6 0a.75.75 0 0 1-.75-.75v-2a.75.75 0 0 1 1.5 0v2a.75.75 0 0 1-.75.75z" transform="translate(-3.502 1.375)" style="fill:#0d1922"/>
</svg>
