<svg xmlns="http://www.w3.org/2000/svg" width="50" height="50" viewBox="0 0 50 50">
    <defs>
        <clipPath id="clip-path">
            <circle id="椭圆_157" data-name="椭圆 157" class="cls-1" cx="25" cy="25" r="25" transform="translate(-5 -5)"/>
        </clipPath>
        <style>
            .cls-1{fill:#1a30ff}.cls-3{fill:#f5f5f5}
        </style>
    </defs>
    <g id="下一頁" transform="rotate(180 25 25)">
        <g id="蒙版组_4" data-name="蒙版组 4" transform="translate(5 5)" style="clip-path:url(#clip-path)">
            <circle id="椭圆_156" data-name="椭圆 156" class="cls-1" cx="25" cy="25" r="25" transform="translate(-5 -5)"/>
            <path id="右翻按鈕" class="cls-3" d="m-13.571-23.428 6.295 6.036H-22.5a2 2 0 0 0-2 2v1.334a2 2 0 0 0 2 2h15.223l-6.294 6.038a2 2 0 0 0-.029 2.86l.917.909a1.993 1.993 0 0 0 2.826 0L1.2-13.307a1.993 1.993 0 0 0 0-2.826L-9.861-27.205a1.993 1.993 0 0 0-2.826 0l-.917.909a2.013 2.013 0 0 0 .033 2.868z" transform="translate(31.355 34.728)"/>
            <path id="右翻按鈕-2" data-name="右翻按鈕" class="cls-3" d="m-13.571-23.428 6.295 6.036H-22.5a2 2 0 0 0-2 2v1.334a2 2 0 0 0 2 2h15.223l-6.294 6.038a2 2 0 0 0-.029 2.86l.917.909a1.993 1.993 0 0 0 2.826 0L1.2-13.307a1.993 1.993 0 0 0 0-2.826L-9.861-27.205a1.993 1.993 0 0 0-2.826 0l-.917.909a2.013 2.013 0 0 0 .033 2.868z" transform="translate(-8.644 34.728)"/>
        </g>
    </g>
</svg>
