<svg xmlns="http://www.w3.org/2000/svg" width="21" height="21" viewBox="0 0 21 21">
    <path data-name="路径 437" d="M17.516 14.636a47.638 47.638 0 0 1-3.189 4.272 1.086 1.086 0 0 1-.467.315v4.667l4.391-1.568zM12.669 18.9a46.8 46.8 0 0 1-3.189-4.264l-.724 7.686 4.38 1.568v-4.668a1.061 1.061 0 0 1-.467-.319zm6.309 3.454 4.532 1.618a.362.362 0 0 0 .485-.409l-1.448-7.6a.362.362 0 0 0-.217-.264l-4.148-1.727zM3.486 23.976l4.532-1.618.8-8.385L4.674 15.7a.362.362 0 0 0-.217.264l-1.448 7.6a.362.362 0 0 0 .478.409zm10.287-5.536c.228-.268 5.516-6.553 5.516-9.648a5.791 5.791 0 1 0-11.583 0c0 3.1 5.288 9.38 5.516 9.648a.362.362 0 0 0 .55 0zm-2.809-9.648a2.534 2.534 0 1 1 2.536 2.535 2.534 2.534 0 0 1-2.536-2.535z" transform="translate(-3.002 -3)" style="fill:#0d1922"/>
</svg>
