<svg xmlns="http://www.w3.org/2000/svg" width="72.218" height="72.185" viewBox="0 0 72.218 72.185">
    <defs>
        <style>
            .cls-1{fill:#1a30ff}
        </style>
    </defs>
    <g id="輪狀" transform="translate(-1660.519 -3077.908)">
        <g id="temp_abstract-1459N5914N59_temp" transform="translate(1659.519 3076.908)">
            <path id="路径_426" data-name="路径 426" class="cls-1" d="m82.3 26.584-.015-.055a1.225 1.225 0 0 1-.039-.158A36.126 36.126 0 0 0 37.982 2.344l-.162.033h-.02a35.609 35.609 0 0 0-5.1 1.873 36.063 36.063 0 0 0-4.662 2.565c.254.018.495.083.744.118s.5.063.74.118a10 10 0 0 1 1.094.331c.219.079.451.14.657.234a9.807 9.807 0 0 1 1.094.587c.173.1.357.184.525.3a9.265 9.265 0 0 1 2.585 2.583c.068.1.136.193.2.291a9.927 9.927 0 0 1 .777 1.477c.044.107.081.219.12.322a10.148 10.148 0 0 1 .438 1.506c.011.055.028.105.039.16a10.043 10.043 0 0 1 .155 1.637v.392a10.069 10.069 0 0 1-.118 1.451c.477-.269.981-.488 1.477-.72.269-.127.527-.276.8-.392a21.418 21.418 0 0 1 2.543-.876 21.074 21.074 0 0 1 5.691-.784h.591a21.529 21.529 0 0 1 20.892 24.537 24.791 24.791 0 0 1-.622 2.948 21.913 21.913 0 0 1-.891 2.493c-.116.274-.265.53-.392.8-.219.473-.438.952-.687 1.405a10.081 10.081 0 0 1 1.633-.134 9.819 9.819 0 0 1 8.212 4.378c.132.2.219.409.342.613a9.685 9.685 0 0 1 .536 1.022c.107.252.179.51.265.768a9.174 9.174 0 0 1 .286.972c.061.278.094.556.132.836.029.219.083.418.1.63a34.854 34.854 0 0 0 2.6-4.769 36.207 36.207 0 0 0 1.7-25.462z" transform="translate(-10.627)"/>
            <path id="路径_427" data-name="路径 427" class="cls-1" d="M64.659 64.4a7.166 7.166 0 0 0 .109-1.127c0-.092.026-.182.026-.274a7.455 7.455 0 0 0-.074-.8c-.022-.2-.022-.4-.059-.6-.03-.158-.1-.306-.135-.462a7.054 7.054 0 0 0-.265-.886c-.041-.105-.111-.2-.16-.306a7.249 7.249 0 0 0-11.719-2.09c-.206.208-.425.414-.641.6a16.661 16.661 0 0 1-1.269 1.094l-.573.438a1.172 1.172 0 0 1-.112.079 1.688 1.688 0 0 1-.169.109q-.692.492-1.418.928c-.355.219-.72.4-1.094.6-.125.066-.247.14-.372.2-.471.236-.95.451-1.436.657l-.057.026a21.088 21.088 0 0 1-4.735 1.314h-.057a22.05 22.05 0 0 1-1.436.166l-.335.028c-.377.024-.755.037-1.136.044-.142 0-.282.015-.438.015-.232 0-.466 0-.7-.013h-.044A21.584 21.584 0 0 1 16.476 36.3a1.846 1.846 0 0 1 .055-.177 21.556 21.556 0 0 1 5.325-8.777 6.913 6.913 0 0 0 .584-.718 5.287 5.287 0 0 0 .35-.438c.1-.16.195-.376.3-.565a7.382 7.382 0 0 0 .366-.7c.037-.094.053-.193.085-.287a7.3 7.3 0 0 0-.757-6.45 7.2 7.2 0 0 0-.928-1.136 7.457 7.457 0 0 0-10.287 0 34.836 34.836 0 0 0-2.937 3.331c-.32.4-.6.781-.876 1.171a.39.39 0 0 1-.046.059 1.082 1.082 0 0 1-.153.19 36.1 36.1 0 0 0 25.68 56.677l.265.037a37.983 37.983 0 0 0 10.022-.385.742.742 0 0 1 .1-.024A35.853 35.853 0 0 0 62.3 68.477c.167-.144.252-.232.337-.315a7.207 7.207 0 0 0 .816-1c.039-.053.09-.1.127-.155a7.329 7.329 0 0 0 1.066-2.6z" transform="translate(0 -5.499)"/>
        </g>
        <text id="CoS" transform="translate(1681.13 3119.53)" style="stroke:#1a30ff;font-size:16px;font-family:'jf-openhuninn-1\.0';fill:#1a30ff"><tspan x="0" y="0">CoS</tspan></text>
    </g>
</svg>
