<svg xmlns="http://www.w3.org/2000/svg" width="25" height="25" viewBox="0 0 25 25">
    <g data-name="组 263">
        <path data-name="路径 435" d="M0 0h25v25H0z" style="fill:none"/>
        <path data-name="路径 436" d="M20.63 4H4.07a2.057 2.057 0 0 0-2.06 2.05L2 18.349A2.066 2.066 0 0 0 4.07 20.4h16.56a2.066 2.066 0 0 0 2.07-2.05V6.05A2.066 2.066 0 0 0 20.63 4zm-.414 4.356-7.316 4.53a1.055 1.055 0 0 1-1.1 0l-7.316-4.53a.873.873 0 1 1 .931-1.476l6.934 4.295 6.935-4.295a.873.873 0 1 1 .931 1.476z" transform="translate(.15 .3)" style="fill:#0d1922"/>
    </g>
</svg>
