<svg xmlns="http://www.w3.org/2000/svg" width="20" height="18" viewBox="0 0 20 18">
    <path data-name="路径 2490" d="M12.826 11.817a2.477 2.477 0 0 1 2.5 2.454V15.5c.174 3-2.187 4.5-6.559 4.5S2 18.521 2 15.539v-1.267a2.477 2.477 0 0 1 2.5-2.454zm6.668 0a2.477 2.477 0 0 1 2.5 2.454v.862c.151 2.7-1.932 4.047-5.74 4.047a13.474 13.474 0 0 1-1.457-.074 4 4 0 0 0 1.075-1.566h.381c2.974 0 4.162-.771 4.075-2.366v-.906a.826.826 0 0 0-.833-.818h-3.441a3.263 3.263 0 0 0-1.024-1.637zm-6.668 1.636H4.5a.826.826 0 0 0-.833.818v1.267c0 1.875 1.547 2.825 5.1 2.825s5-.928 4.893-2.822v-1.27a.826.826 0 0 0-.834-.817zM8.667 2a4.13 4.13 0 0 1 4.167 4.091 4.168 4.168 0 0 1-8.335 0A4.13 4.13 0 0 1 8.667 2zM17 3.636a3.273 3.273 0 1 1-3.333 3.272A3.3 3.3 0 0 1 17 3.636zm-8.333 0a2.455 2.455 0 1 0 2.5 2.455 2.478 2.478 0 0 0-2.5-2.455zM17 5.272a1.637 1.637 0 1 0 1.667 1.636A1.652 1.652 0 0 0 17 5.272z" transform="translate(-2 -2)" style="fill:#212121"/>
</svg>
