<svg xmlns="http://www.w3.org/2000/svg" width="23" height="23" viewBox="0 0 23 23">
    <defs>
        <style>
            .cls-1{fill:#0d1922}
        </style>
    </defs>
    <g id="phone" transform="translate(-180.376 -2952.294)">
        <g id="组_260" data-name="组 260" transform="translate(180.376 2952.294)">
            <path id="路径_429" data-name="路径 429" class="cls-1" d="M18.158 16.274a2.292 2.292 0 0 0-3.251 0L13.8 17.385a20 20 0 0 1-3.45-2.774 20.027 20.027 0 0 1-2.769-3.456l1.109-1.111a2.3 2.3 0 0 0 0-3.257L6.523 4.625a2.239 2.239 0 0 0-1.614-.674 2.293 2.293 0 0 0-1.629.674L2.239 5.66A4.888 4.888 0 0 0 .985 9.683c.245 2.874 2.127 6.33 5.026 9.243s6.388 4.79 9.256 5.066a6.009 6.009 0 0 0 .643 0 4.638 4.638 0 0 0 3.374-1.257l1.033-1.042a2.3 2.3 0 0 0 .673-1.632 2.248 2.248 0 0 0-.673-1.617zm2.41-11.91A11.4 11.4 0 0 0 12.459 1a.766.766 0 0 0 0 1.533A9.954 9.954 0 0 1 22.4 12.58a.766.766 0 0 0 .765.766.766.766 0 0 0 .765-.766 11.438 11.438 0 0 0-3.366-8.216z" transform="translate(-.934 -1)"/>
            <path id="路径_430" data-name="路径 430" class="cls-1" d="M19.715 10.244a4.629 4.629 0 0 1 1.366 3.325.771.771 0 0 0 .771.771.771.771 0 0 0 .771-.771 6.172 6.172 0 0 0-6.172-6.249.771.771 0 0 0 0 1.543 4.629 4.629 0 0 1 3.263 1.381z" transform="translate(-4.641 -2.326)"/>
        </g>
    </g>
</svg>
