<svg xmlns="http://www.w3.org/2000/svg" viewBox="0 0 161.1 49.52"><defs><style>.cls-1{stroke:#000;stroke-miterlimit:10;stroke-width:0.25px;}</style></defs><g id="圖層_2" data-name="圖層 2"><g id="圖層_1-2" data-name="圖層 1"><path class="cls-1" d="M2.31,45.91A3.94,3.94,0,0,1,.7,44.31,4.94,4.94,0,0,1,.12,41.9a4.85,4.85,0,0,1,.59-2.42,4,4,0,0,1,1.58-1.59,4.68,4.68,0,0,1,2.29-.56,5.43,5.43,0,0,1,1.51.19,6.56,6.56,0,0,1,1.39.6.5.5,0,0,1,.29.49.46.46,0,0,1-.15.34.47.47,0,0,1-.37.16.49.49,0,0,1-.23,0,4.86,4.86,0,0,0-1.12-.45,4.43,4.43,0,0,0-1.2-.15,3.64,3.64,0,0,0-1.85.44,2.92,2.92,0,0,0-1.14,1.22,4.16,4.16,0,0,0,0,3.54A2.75,2.75,0,0,0,2.87,44.9a3.65,3.65,0,0,0,1.83.44,4.43,4.43,0,0,0,1.2-.15A4.86,4.86,0,0,0,7,44.74a.49.49,0,0,1,.23-.05.5.5,0,0,1,.37.15.47.47,0,0,1,.15.35.51.51,0,0,1-.29.49,6.56,6.56,0,0,1-1.39.6,5.43,5.43,0,0,1-1.51.19A4.6,4.6,0,0,1,2.31,45.91Z"/><path class="cls-1" d="M10.53,46.05a3,3,0,0,1-1.14-1.2,4,4,0,0,1,0-3.52,2.76,2.76,0,0,1,1.15-1.19,3.37,3.37,0,0,1,1.7-.42,3.41,3.41,0,0,1,1.71.42,2.93,2.93,0,0,1,1.15,1.19,4,4,0,0,1,0,3.52,3,3,0,0,1-1.16,1.2,3.4,3.4,0,0,1-1.7.42A3.39,3.39,0,0,1,10.53,46.05Zm2.72-.9a1.83,1.83,0,0,0,.78-.78,2.56,2.56,0,0,0,.3-1.29A2.46,2.46,0,0,0,14,41.79a1.82,1.82,0,0,0-.74-.74,2.13,2.13,0,0,0-1-.25,2.35,2.35,0,0,0-1,.22,1.91,1.91,0,0,0-.79.78,2.63,2.63,0,0,0-.29,1.28,2.42,2.42,0,0,0,.31,1.31,1.84,1.84,0,0,0,.74.75,2.09,2.09,0,0,0,1,.25A2.24,2.24,0,0,0,13.25,45.15Z"/><path class="cls-1" d="M17.59,46.24a.61.61,0,0,1-.17-.42V37.58a.61.61,0,0,1,.17-.42A.57.57,0,0,1,18,37a.58.58,0,0,1,.6.59v8.24a.58.58,0,0,1-.18.42.61.61,0,0,1-.42.17A.57.57,0,0,1,17.59,46.24Z"/><path class="cls-1" d="M21.08,46.24a.58.58,0,0,1-.18-.42V37.58a.58.58,0,0,1,.18-.42.57.57,0,0,1,.41-.17.54.54,0,0,1,.42.17.54.54,0,0,1,.18.42v8.24a.58.58,0,0,1-.18.42.61.61,0,0,1-.42.17A.57.57,0,0,1,21.08,46.24Z"/><path class="cls-1" d="M24.87,45.58A3.4,3.4,0,0,1,24,43.09a4.31,4.31,0,0,1,.33-1.66,2.8,2.8,0,0,1,1-1.26,3,3,0,0,1,4.34,1.14,3.51,3.51,0,0,1,.37,1.62.57.57,0,0,1-.17.41.54.54,0,0,1-.43.17H25.19a2.08,2.08,0,0,0,.68,1.38,2.3,2.3,0,0,0,1.53.48,4.15,4.15,0,0,0,.91-.1,3.42,3.42,0,0,0,.8-.3.52.52,0,0,1,.23,0,.49.49,0,0,1,.36.15.45.45,0,0,1,.16.36.56.56,0,0,1-.34.48,4,4,0,0,1-2.22.56A3.26,3.26,0,0,1,24.87,45.58Zm4-3.2a1.73,1.73,0,0,0-.31-.85,1.76,1.76,0,0,0-.69-.61,2,2,0,0,0-.86-.2,2.12,2.12,0,0,0-.85.19,1.66,1.66,0,0,0-.7.64,2.26,2.26,0,0,0-.3,1h3.56A.14.14,0,0,0,28.9,42.38Z"/><path class="cls-1" d="M33.47,49.2a5.12,5.12,0,0,1-1.25-.47.5.5,0,0,1-.24-.46.55.55,0,0,1,.15-.37.47.47,0,0,1,.37-.16.74.74,0,0,1,.23,0,4.71,4.71,0,0,0,2.09.48c1.29,0,1.93-.68,1.93-2.05V45.4a2.94,2.94,0,0,1-3.6.56A3,3,0,0,1,32,44.81,3.48,3.48,0,0,1,31.51,43,3.55,3.55,0,0,1,32,41.2a3.08,3.08,0,0,1,2.63-1.48,2.81,2.81,0,0,1,2.16.94v-.28a.61.61,0,0,1,.17-.42.55.55,0,0,1,.41-.18.54.54,0,0,1,.42.18.58.58,0,0,1,.18.42v5.67a3.62,3.62,0,0,1-.77,2.47,2.83,2.83,0,0,1-2.22.87A5.82,5.82,0,0,1,33.47,49.2ZM35.84,45a3.91,3.91,0,0,0,.91-.69V41.72a3.91,3.91,0,0,0-.91-.69,2.37,2.37,0,0,0-2.57.35,2.64,2.64,0,0,0,0,3.3,2.37,2.37,0,0,0,2.57.35Z"/><path class="cls-1" d="M40.71,45.58a3.4,3.4,0,0,1-.87-2.49,4.31,4.31,0,0,1,.33-1.66,2.86,2.86,0,0,1,1-1.26,3.35,3.35,0,0,1,3.32,0,3,3,0,0,1,1,1.16,3.63,3.63,0,0,1,.36,1.62.56.56,0,0,1-.16.41.54.54,0,0,1-.43.17H41a2,2,0,0,0,.68,1.38,2.26,2.26,0,0,0,1.53.48,4.06,4.06,0,0,0,.9-.1A3.33,3.33,0,0,0,45,45a.52.52,0,0,1,.59.1.45.45,0,0,1,.16.36.57.57,0,0,1-.34.48,4.76,4.76,0,0,1-1,.43,4.56,4.56,0,0,1-1.21.13A3.26,3.26,0,0,1,40.71,45.58Zm4-3.2a1.63,1.63,0,0,0-.3-.85,1.91,1.91,0,0,0-.69-.61,2,2,0,0,0-.86-.2,2.12,2.12,0,0,0-.85.19,1.61,1.61,0,0,0-.7.64,2,2,0,0,0-.3,1h3.55C44.7,42.55,44.75,42.49,44.74,42.38Z"/><path class="cls-1" d="M53,46.05a3.09,3.09,0,0,1-1.15-1.2,4.07,4.07,0,0,1,0-3.52A2.87,2.87,0,0,1,53,40.14a3.44,3.44,0,0,1,1.71-.42,3.37,3.37,0,0,1,1.7.42,2.89,2.89,0,0,1,1.16,1.19,4.07,4.07,0,0,1,0,3.52,3,3,0,0,1-1.16,1.2,3.67,3.67,0,0,1-3.41,0Zm2.71-.9a1.86,1.86,0,0,0,.79-.78,2.56,2.56,0,0,0,.29-1.29,2.46,2.46,0,0,0-.3-1.29,2,2,0,0,0-.74-.74,2.13,2.13,0,0,0-1-.25,2.31,2.31,0,0,0-1,.22,1.91,1.91,0,0,0-.79.78,2.63,2.63,0,0,0-.29,1.28,2.52,2.52,0,0,0,.3,1.31,1.93,1.93,0,0,0,.75.75,2.07,2.07,0,0,0,1,.25A2.2,2.2,0,0,0,55.75,45.15Z"/><path class="cls-1" d="M60.52,46.24a.58.58,0,0,1-.18-.42v-5h-.73a.49.49,0,0,1-.36-.15.51.51,0,0,1-.15-.36.51.51,0,0,1,.51-.51h.73v-.72a2.56,2.56,0,0,1,.28-1.26,1.66,1.66,0,0,1,.69-.7,2,2,0,0,1,.95-.24,2.58,2.58,0,0,1,1.11.26.52.52,0,0,1,.3.45.49.49,0,0,1-.15.35.44.44,0,0,1-.33.15,1,1,0,0,1-.29,0l-.35,0a1,1,0,0,0-.79.26,1.22,1.22,0,0,0-.24.85v.68H63.1a.51.51,0,0,1,.51.51.51.51,0,0,1-.15.36.49.49,0,0,1-.36.15H61.52v5a.57.57,0,0,1-.17.42.61.61,0,0,1-.42.17A.57.57,0,0,1,60.52,46.24Z"/><path class="cls-1" d="M69.18,45.86a.58.58,0,0,1-.26-.21.59.59,0,0,1-.11-.32.57.57,0,0,1,.16-.39.49.49,0,0,1,.38-.16.6.6,0,0,1,.24,0,6.09,6.09,0,0,0,2.5.52c1.47,0,2.21-.48,2.21-1.44a.78.78,0,0,0-.28-.63,1.91,1.91,0,0,0-.64-.38c-.25-.09-.67-.21-1.25-.37A11.58,11.58,0,0,1,70.46,42a2.48,2.48,0,0,1-1.16-.81,2,2,0,0,1-.4-1.26,2.51,2.51,0,0,1,.38-1.33,2.54,2.54,0,0,1,1.17-1,4.37,4.37,0,0,1,1.75-.33,7.18,7.18,0,0,1,2.53.42.51.51,0,0,1,.37.52.55.55,0,0,1-.15.37.48.48,0,0,1-.37.17.39.39,0,0,1-.2-.05,6.53,6.53,0,0,0-2-.34,3.1,3.1,0,0,0-1.63.38,1.2,1.2,0,0,0-.62,1.06.93.93,0,0,0,.31.72,2,2,0,0,0,.7.43,9.94,9.94,0,0,0,1.25.36,12.27,12.27,0,0,1,1.63.48,2.35,2.35,0,0,1,1.08.79A2.08,2.08,0,0,1,75.47,44a2.17,2.17,0,0,1-.41,1.28,2.7,2.7,0,0,1-1.16.9,4.33,4.33,0,0,1-1.7.31A7.48,7.48,0,0,1,69.18,45.86Z"/><path class="cls-1" d="M78.64,46.06a3,3,0,0,1-1.26-1.19,3.4,3.4,0,0,1-.46-1.78,3.45,3.45,0,0,1,.47-1.8,3.12,3.12,0,0,1,1.23-1.16,3.48,3.48,0,0,1,1.7-.41,3.44,3.44,0,0,1,1.12.16,4.42,4.42,0,0,1,1,.45.52.52,0,0,1,.25.45.53.53,0,0,1-.15.36.46.46,0,0,1-.35.16.6.6,0,0,1-.27-.07,4.43,4.43,0,0,0-.74-.32,2.53,2.53,0,0,0-.72-.09,2.32,2.32,0,0,0-1.7.62,2.49,2.49,0,0,0,0,3.31,2.32,2.32,0,0,0,1.7.62,2.53,2.53,0,0,0,.72-.09,5.48,5.48,0,0,0,.74-.32.63.63,0,0,1,.27-.08.47.47,0,0,1,.35.17.52.52,0,0,1,.15.35.53.53,0,0,1-.25.46,4.42,4.42,0,0,1-1,.45,3.44,3.44,0,0,1-1.12.16A3.6,3.6,0,0,1,78.64,46.06Z"/><path class="cls-1" d="M84.5,38.35a.62.62,0,0,1-.19-.46v0a.66.66,0,0,1,.19-.47.64.64,0,0,1,.47-.19H85a.62.62,0,0,1,.46.19.63.63,0,0,1,.2.47v0a.59.59,0,0,1-.2.46.63.63,0,0,1-.46.2H85A.65.65,0,0,1,84.5,38.35Zm.08,7.89a.57.57,0,0,1-.17-.42V40.38a.57.57,0,0,1,.17-.42.54.54,0,0,1,.41-.18.58.58,0,0,1,.6.6v5.44a.58.58,0,0,1-.18.42.61.61,0,0,1-.42.17A.57.57,0,0,1,84.58,46.24Z"/><path class="cls-1" d="M88.37,45.58a3.4,3.4,0,0,1-.87-2.49,4.31,4.31,0,0,1,.33-1.66,2.8,2.8,0,0,1,1-1.26,3.33,3.33,0,0,1,3.31,0,2.89,2.89,0,0,1,1,1.16,3.51,3.51,0,0,1,.37,1.62.6.6,0,0,1-.16.41.57.57,0,0,1-.44.17H88.69a2.12,2.12,0,0,0,.68,1.38,2.3,2.3,0,0,0,1.53.48,4.15,4.15,0,0,0,.91-.1,3.49,3.49,0,0,0,.81-.3.45.45,0,0,1,.22,0,.53.53,0,0,1,.37.15.48.48,0,0,1,.15.36.56.56,0,0,1-.34.48,4.5,4.5,0,0,1-1,.43,4.66,4.66,0,0,1-1.21.13A3.26,3.26,0,0,1,88.37,45.58Zm4-3.2a1.64,1.64,0,0,0-.31-.85,1.76,1.76,0,0,0-.69-.61,2,2,0,0,0-.85-.2,2,2,0,0,0-.85.19,1.63,1.63,0,0,0-.71.64,2.26,2.26,0,0,0-.3,1h3.56C92.36,42.55,92.41,42.49,92.4,42.38Z"/><path class="cls-1" d="M95.57,46.24a.61.61,0,0,1-.17-.42V40.38a.61.61,0,0,1,.17-.42.58.58,0,0,1,.84,0,.61.61,0,0,1,.17.42v.48A4.11,4.11,0,0,1,97.66,40a2.67,2.67,0,0,1,1.27-.29,2.26,2.26,0,0,1,1.23.33,2.14,2.14,0,0,1,.78.9,2.79,2.79,0,0,1,.28,1.27v3.6a.58.58,0,0,1-.18.42.61.61,0,0,1-.42.17.58.58,0,0,1-.58-.59V42.34c0-1-.46-1.53-1.39-1.53a2,2,0,0,0-1.09.3,4.46,4.46,0,0,0-1,.9v3.81a.59.59,0,0,1-1,.42Z"/><path class="cls-1" d="M104.78,46.06a3.14,3.14,0,0,1-1.26-1.19,3.49,3.49,0,0,1-.45-1.78,3.36,3.36,0,0,1,.47-1.8,3.09,3.09,0,0,1,1.22-1.16,3.49,3.49,0,0,1,1.71-.41,3.52,3.52,0,0,1,1.12.16,4.15,4.15,0,0,1,1,.45.52.52,0,0,1,.25.45.53.53,0,0,1-.15.36.44.44,0,0,1-.34.16.64.64,0,0,1-.28-.07,4.11,4.11,0,0,0-.74-.32,2.43,2.43,0,0,0-.72-.09,2.3,2.3,0,0,0-1.69.62,2.49,2.49,0,0,0,0,3.31,2.3,2.3,0,0,0,1.69.62,2.43,2.43,0,0,0,.72-.09A5,5,0,0,0,108,45a.67.67,0,0,1,.28-.08.45.45,0,0,1,.34.17.52.52,0,0,1,.15.35.53.53,0,0,1-.25.46,4.15,4.15,0,0,1-1,.45,3.52,3.52,0,0,1-1.12.16A3.67,3.67,0,0,1,104.78,46.06Z"/><path class="cls-1" d="M111,45.58a3.4,3.4,0,0,1-.87-2.49,4.31,4.31,0,0,1,.33-1.66,2.8,2.8,0,0,1,1-1.26,3,3,0,0,1,4.34,1.14,3.51,3.51,0,0,1,.37,1.62.57.57,0,0,1-.17.41.54.54,0,0,1-.43.17H111.3a2.08,2.08,0,0,0,.68,1.38,2.3,2.3,0,0,0,1.53.48,4.15,4.15,0,0,0,.91-.1,3.42,3.42,0,0,0,.8-.3.52.52,0,0,1,.23,0,.49.49,0,0,1,.36.15.45.45,0,0,1,.16.36.56.56,0,0,1-.34.48,4,4,0,0,1-2.22.56A3.26,3.26,0,0,1,111,45.58Zm4-3.2a1.73,1.73,0,0,0-.31-.85,1.76,1.76,0,0,0-.69-.61,2,2,0,0,0-.86-.2,2.12,2.12,0,0,0-.85.19,1.66,1.66,0,0,0-.7.64,2.26,2.26,0,0,0-.3,1h3.55A.14.14,0,0,0,115,42.38Z"/><path class="cls-1" d="M117.92,48.14a.4.4,0,0,1-.11-.27.37.37,0,0,1,.19-.33,1.37,1.37,0,0,0,.49-.46,1.27,1.27,0,0,0,.16-.7h0a.69.69,0,0,1-.51-.21.74.74,0,0,1-.22-.51v-.08a.74.74,0,0,1,.22-.51.69.69,0,0,1,.51-.21h.12a.63.63,0,0,1,.48.21,1,1,0,0,1,.25.51,2,2,0,0,1,0,.38,1.84,1.84,0,0,1,0,.37,3.79,3.79,0,0,1-.33,1.13,1.86,1.86,0,0,1-.71.74.46.46,0,0,1-.23.06A.37.37,0,0,1,117.92,48.14Z"/><path class="cls-1" d="M126.17,46.24a.61.61,0,0,1-.17-.42V38.24a.81.81,0,0,1,.25-.59.79.79,0,0,1,.59-.26H127a.9.9,0,0,1,.71.38l4.69,6.77c0,.05.07.08.1.08s0,0,.05,0a.16.16,0,0,0,0-.09V38a.57.57,0,0,1,.17-.42.54.54,0,0,1,.41-.18.62.62,0,0,1,.6.6v7.58a.8.8,0,0,1-.26.59.85.85,0,0,1-.59.25h-.16a.75.75,0,0,1-.38-.1.68.68,0,0,1-.3-.25l-4.71-6.8s-.08-.08-.1-.08a.07.07,0,0,0-.05,0,.16.16,0,0,0,0,.09v6.51a.58.58,0,0,1-.18.42.61.61,0,0,1-.42.17A.57.57,0,0,1,126.17,46.24Z"/><path class="cls-1" d="M138.94,46.24a.57.57,0,0,1-.17-.42V42.59l-3-4.24a.82.82,0,0,1-.1-.36.65.65,0,0,1,.16-.42.54.54,0,0,1,.41-.18.59.59,0,0,1,.52.3l2.64,3.84L142,37.69a.59.59,0,0,1,.52-.3.54.54,0,0,1,.4.17.54.54,0,0,1,.17.4,1,1,0,0,1-.1.39l-3,4.24v3.23a.58.58,0,0,1-.18.42.57.57,0,0,1-.41.17A.61.61,0,0,1,138.94,46.24Z"/><path class="cls-1" d="M146.23,45.91a3.88,3.88,0,0,1-1.61-1.6,5.28,5.28,0,0,1,0-4.83,3.9,3.9,0,0,1,1.58-1.59,4.65,4.65,0,0,1,2.29-.56,5.43,5.43,0,0,1,1.51.19,6.28,6.28,0,0,1,1.38.6.49.49,0,0,1,.29.49.45.45,0,0,1-.14.34.48.48,0,0,1-.38.16.45.45,0,0,1-.22,0,5,5,0,0,0-1.12-.45,4.5,4.5,0,0,0-1.21-.15,3.61,3.61,0,0,0-1.84.44,3,3,0,0,0-1.15,1.22,3.86,3.86,0,0,0-.4,1.78,3.6,3.6,0,0,0,.4,1.76,2.79,2.79,0,0,0,1.16,1.24,3.7,3.7,0,0,0,1.83.44,4.5,4.5,0,0,0,1.21-.15,5,5,0,0,0,1.12-.45.45.45,0,0,1,.22-.05.5.5,0,0,1,.38.15.46.46,0,0,1,.14.35.5.5,0,0,1-.29.49,6.28,6.28,0,0,1-1.38.6,5.43,5.43,0,0,1-1.51.19A4.57,4.57,0,0,1,146.23,45.91Z"/><path class="cls-1" d="M155.58,46.09a3.18,3.18,0,0,1-1.4-1.19,3.4,3.4,0,0,1-.52-1.9V38a.61.61,0,0,1,.17-.42.55.55,0,0,1,.41-.18.62.62,0,0,1,.6.6v5a2.13,2.13,0,0,0,.36,1.28,2.09,2.09,0,0,0,.89.8,2.84,2.84,0,0,0,1.23.27,2.78,2.78,0,0,0,1.21-.27,2,2,0,0,0,.93-.81,2.4,2.4,0,0,0,.33-1.27V38a.61.61,0,0,1,.17-.42.56.56,0,0,1,.42-.18.54.54,0,0,1,.41.18A.58.58,0,0,1,161,38v5a3.24,3.24,0,0,1-1.88,3.08,4.19,4.19,0,0,1-3.51,0Z"/><path class="cls-1" d="M1.16,23.91q0-1.07,1.56-1.47l2.59-.69V13.38H3.1c-1,0-1.47-.39-1.47-1.16S2.12,11,3.1,11H5.31V4.28H2.69c-1,0-1.44-.38-1.44-1.16s.48-1.21,1.44-1.21h7.44c.95,0,1.43.4,1.43,1.21s-.48,1.16-1.43,1.16H7.85V11H9.72c1,0,1.47.4,1.47,1.19s-.49,1.16-1.47,1.16H7.85v7.71l2.68-.75c.73,0,1.1.4,1.1,1.19a1.1,1.1,0,0,1-.57,1.06L6.85,24c-1.19.4-2.18.7-3,.91a8.84,8.84,0,0,1-1.44.31C1.58,25.25,1.16,24.8,1.16,23.91ZM8.44,26.5c0-.77.47-1.16,1.41-1.16h9.06V21.16H13.19c-.94,0-1.41-.39-1.41-1.16s.47-1.16,1.41-1.16h5.72V15.5H15.28q-3.12.25-2.87-2.91V4.31q-.25-3.15,2.87-2.9h10q3.16-.25,2.91,2.9v8.28q.25,3.14-2.91,2.91H21.47v3.34h5.78c.92,0,1.38.39,1.38,1.16s-.46,1.16-1.38,1.16H21.47v4.18h6.81c1,0,1.44.39,1.44,1.16s-.48,1.16-1.44,1.16H9.85C8.91,27.66,8.44,27.27,8.44,26.5ZM18.94,3.66H16.1c-.84,0-1.24.4-1.22,1.22V7.19h4.06Zm0,5.78H14.88v2.62a1,1,0,0,0,1.22,1.19h2.84Zm6.75-4.56c0-.84-.4-1.24-1.19-1.22h-3V7.19h4.22Zm0,7.18V9.44H21.47v3.81h3A1,1,0,0,0,25.69,12.06Z"/><path class="cls-1" d="M95,22.31c0,.69-.43,1-1.28,1H81.85v2.22A3.44,3.44,0,0,1,81.13,28a2.7,2.7,0,0,1-2.28.62H77a1.8,1.8,0,0,1-1.14-.28,1.07,1.07,0,0,1-.36-.9c0-.77.5-1.16,1.5-1.16H78.2c.77,0,1.17-.4,1.21-1.22V23.34H68.16c-.83,0-1.25-.34-1.25-1s.42-1,1.25-1H79.41v-.87a1.09,1.09,0,0,1,.54-1,10.6,10.6,0,0,1,2.5-.79l3.25-.84v-.06H71.88c-.81,0-1.22-.33-1.22-1A1,1,0,0,1,71,16a1.36,1.36,0,0,1,.93-.25H88.6a5,5,0,0,1,1.81.26.87.87,0,0,1,.63.8q0,.49-2.16,1.41a54.68,54.68,0,0,1-6,2c-.66.19-1,.49-1,.9v.19H93.73C94.58,21.28,95,21.62,95,22.31ZM67.29,17V14.62a2.9,2.9,0,0,1,.5-1.87,2.1,2.1,0,0,1,1.62-.63h.44l-.65-9a1.86,1.86,0,0,1,.36-1.3,2,2,0,0,1,1.2-.7L74,.62l1-.24.36-.1a1.55,1.55,0,0,1,.39-.06c.64,0,1,.36,1,1.09,0,.34-.3.61-.88.83a14.17,14.17,0,0,1-2.94.58,2,2,0,0,0-1,.33.73.73,0,0,0-.27.67l0,.87h3.82c.77,0,1.15.33,1.15,1s-.38,1-1.15,1H71.82L72,8.25h3.53c.77,0,1.15.33,1.15,1s-.38,1-1.15,1H72.07l.13,1.9H89.82l.13-1.9H86.2c-.71,0-1.07-.32-1.07-1s.36-1,1.07-1h3.9l.06-1.72h-4a1.22,1.22,0,0,1-.82-.23,1,1,0,0,1-.25-.74c0-.64.36-1,1.07-1h4.18V3.94a1.14,1.14,0,0,0-.18-.74,1,1,0,0,0-.69-.2h-3.6c-.66,0-1-.3-1-.91a1,1,0,0,1,.24-.73,1,1,0,0,1,.76-.24h4.44c1.63,0,2.44.63,2.44,1.88l-.66,9.12h.35c1.52,0,2.22.84,2.09,2.5v2.54c0,1-.42,1.46-1.25,1.46a1.2,1.2,0,0,1-.94-.34,1.63,1.63,0,0,1-.31-1.12V15.22c0-.65-.34-1-1-1H70.88a1,1,0,0,0-1.06,1v1.84c0,1-.42,1.47-1.25,1.47S67.29,18,67.29,17ZM77,5.16c0-.36.61-.9,1.84-1.63l.69-.37c-1.31-.92-2-1.51-2-1.78a.77.77,0,0,1,.24-.6,1,1,0,0,1,.67-.22A9.51,9.51,0,0,1,81,2l.9-.94A1.77,1.77,0,0,1,83.07.38a1,1,0,0,1,.7.21.78.78,0,0,1,.24.6c0,.35-.52,1-1.56,1.9l.34.19c.87.63,1.31,1.15,1.31,1.56a.94.94,0,0,1-.25.72.9.9,0,0,1-.69.25,1.76,1.76,0,0,1-1.06-.59L81,4.19c-1.59,1.25-2.62,1.87-3.1,1.87A.8.8,0,0,1,77,5.16Zm2.06,4.18L79.7,9l-.35-.22q-1.59-1-1.59-1.47,0-.81.9-.81a2.49,2.49,0,0,1,1,.47l1,.56.5.34L82,7c.5-.46.87-.69,1.12-.69.65,0,1,.28,1,.85,0,.37-.48.93-1.44,1.69,1.23.83,1.85,1.45,1.85,1.87,0,.65-.31,1-.94,1a2,2,0,0,1-1.06-.6L81.16,10a17.87,17.87,0,0,1-2,1.36,3.06,3.06,0,0,1-1.19.48c-.61,0-.91-.29-.91-.87C77.1,10.61,77.76,10.07,79.07,9.34Z"/><path class="cls-1" d="M133.64,27.22V4.09a3,3,0,0,1,.67-2.17,2.68,2.68,0,0,1,2.14-.64h3.35c1.77,0,2.65.57,2.65,1.72q0,1.06-2.09,6.09a7.85,7.85,0,0,0-.69,2.16,3.79,3.79,0,0,0,.91,1.59,7.72,7.72,0,0,1,1.59,4.85c0,3.14-1.43,4.72-4.28,4.72a1.29,1.29,0,0,1-1.44-1.47,1.21,1.21,0,0,1,.5-1.1,6.35,6.35,0,0,1,1.53-.31,1.27,1.27,0,0,0,1-.62,3.16,3.16,0,0,0,.31-1.57,6.74,6.74,0,0,0-1.37-4.25,3.83,3.83,0,0,1-1-1.93,9.58,9.58,0,0,1,.69-2.35q.66-1.74.78-2.19l.53-1.56a3.35,3.35,0,0,0,.16-.75c0-.41-.29-.62-.88-.62h-1.62a.93.93,0,0,0-1,1V27.22c0,1-.41,1.44-1.22,1.44S133.64,28.18,133.64,27.22Zm6.87-.1c0-.58.4-1,1.19-1.37a8,8,0,0,0,3.78-3q1.16-1.71,1.22-5.72h-2.78c-.92,0-1.37-.37-1.37-1.12s.45-1.1,1.37-1.1h15c.94,0,1.41.38,1.41,1.13s-.47,1.09-1.41,1.09h-4.44v7.41c0,.79.56,1.19,1.69,1.19a4.16,4.16,0,0,0,1.62-.22c.3-.15.47-.59.54-1.32a2.56,2.56,0,0,1,.37-1.35,1.08,1.08,0,0,1,.94-.43c.79,0,1.19.37,1.19,1.1,0,1.83-.36,3.09-1.07,3.78q-.75.69-3.78.69l-1.78-.07c-1.37-.06-2.08-.73-2.12-2V17.06H149.2a17.69,17.69,0,0,1-1,5.69,9.39,9.39,0,0,1-3,3.94c-1.46,1.16-2.59,1.75-3.41,1.75S140.51,28,140.51,27.12Zm1.91-18.46V6.22a3.06,3.06,0,0,1,.63-2.16,2.5,2.5,0,0,1,2.06-.56h4.5V1.78c0-1.1.44-1.66,1.31-1.66s1.34.56,1.34,1.66V3.5h5.13a3,3,0,0,1,2.16.64,2.53,2.53,0,0,1,.53,2.08V8.56a1.68,1.68,0,0,1-.28,1.06,1.11,1.11,0,0,1-.91.35c-.79,0-1.19-.47-1.19-1.41V6.81a.94.94,0,0,0-1-1.06H145.73a.93.93,0,0,0-1.06,1.06V8.66c0,.87-.37,1.31-1.12,1.31S142.42,9.53,142.42,8.66Zm2.5,1.81c0-.75.42-1.13,1.25-1.13h10.16c.85,0,1.28.38,1.28,1.13s-.43,1.12-1.28,1.12H146.17C145.34,11.59,144.92,11.22,144.92,10.47Z"/></g></g></svg>