<svg xmlns="http://www.w3.org/2000/svg" width="38.006" height="38.006" viewBox="0 0 38.006 38.006">
    <path d="M8.139 38.8a7.367 7.367 0 0 1-7.346-7.348V8.139A7.367 7.367 0 0 1 8.139.793h23.313A7.367 7.367 0 0 1 38.8 8.139v23.313a7.367 7.367 0 0 1-7.348 7.348zM28.7 25.707a1.461 1.461 0 0 0 .9-2.572l-8.771-8.759a1.461 1.461 0 0 0-2.061 0l-8.773 8.759a1.457 1.457 0 1 0 2.06 2.065l7.735-7.715 7.746 7.715a1.461 1.461 0 0 0 1.162.511z" transform="translate(-.793 -.793)" style="fill:#0d1922"/>
</svg>
